<svg xmlns="http://www.w3.org/2000/svg" viewBox="0 0 800 320" width="800" height="320">
  <rect width="800" height="320" rx="12" fill="#0d1117"/>

  <!-- M letter - pixel blocks -->
  <rect x="40" y="30" width="18" height="120" fill="#58a6ff"/>
  <rect x="130" y="30" width="18" height="120" fill="#58a6ff"/>
  <rect x="58" y="30" width="18" height="18" fill="#58a6ff"/>
  <rect x="76" y="48" width="18" height="18" fill="#58a6ff"/>
  <rect x="94" y="66" width="18" height="18" fill="#58a6ff"/>
  <rect x="112" y="30" width="18" height="18" fill="#58a6ff"/>
  <rect x="94" y="48" width="18" height="18" fill="#58a6ff"/>
  <rect x="58" y="84" width="18" height="66" fill="#58a6ff"/>
  <rect x="112" y="84" width="18" height="66" fill="#58a6ff"/>

  <!-- vertical divider -->
  <line x1="200" y1="20" x2="200" y2="305" stroke="#30363d" stroke-width="1"/>

  <!-- username -->
  <text x="222" y="52" font-family="'Courier New', Courier, monospace" font-size="16" fill="#58a6ff" font-weight="bold">MohammedBakr1</text>
  <text x="372" y="52" font-family="'Courier New', Courier, monospace" font-size="16" fill="#8b949e">@github</text>

  <!-- divider -->
  <text x="222" y="72" font-family="'Courier New', Courier, monospace" font-size="12" fill="#58a6ff" opacity="0.5">──────────────────────────────────────────</text>

  <!-- Name -->
  <text x="222" y="96" font-family="'Courier New', Courier, monospace" font-size="13" fill="#58a6ff" font-weight="bold">Name</text>
  <text x="352" y="96" font-family="'Courier New', Courier, monospace" font-size="13" fill="#e6edf3">Mohammed Bakr</text>

  <!-- Bio -->
  <text x="222" y="118" font-family="'Courier New', Courier, monospace" font-size="13" fill="#58a6ff" font-weight="bold">Bio</text>
  <text x="352" y="118" font-family="'Courier New', Courier, monospace" font-size="13" fill="#7ee787">CS&amp;AI Student | Open Source Contributor</text>
  <text x="352" y="136" font-family="'Courier New', Courier, monospace" font-size="13" fill="#7ee787">Novice Researcher | Comp. Arch. Enthusiast</text>

  <!-- Languages -->
  <text x="222" y="158" font-family="'Courier New', Courier, monospace" font-size="13" fill="#58a6ff" font-weight="bold">Languages</text>
  <text x="352" y="158" font-family="'Courier New', Courier, monospace" font-size="13" fill="#f0883e">C · C++ · Rust · Java · Assembly · Haskell</text>

  <!-- Tools -->
  <text x="222" y="178" font-family="'Courier New', Courier, monospace" font-size="13" fill="#58a6ff" font-weight="bold">Tools</text>
  <text x="352" y="178" font-family="'Courier New', Courier, monospace" font-size="13" fill="#e6edf3">Git · GitHub · Linux · Neovim · Docker</text>

  <!-- Interests -->
  <text x="222" y="198" font-family="'Courier New', Courier, monospace" font-size="13" fill="#58a6ff" font-weight="bold">Interests</text>
  <text x="352" y="198" font-family="'Courier New', Courier, monospace" font-size="13" fill="#e6edf3">Comp. Architecture · AI · Open Source</text>

  <!-- Focus -->
  <text x="222" y="218" font-family="'Courier New', Courier, monospace" font-size="13" fill="#58a6ff" font-weight="bold">Focus</text>
  <text x="352" y="218" font-family="'Courier New', Courier, monospace" font-size="13" fill="#bb9af7">Compilers · OS Development · Low-level Systems</text>

  <!-- divider 2 -->
  <text x="222" y="238" font-family="'Courier New', Courier, monospace" font-size="12" fill="#58a6ff" opacity="0.5">──────────────────────────────────────────</text>

  <!-- Projects placeholder -->
  <text x="222" y="260" font-family="'Courier New', Courier, monospace" font-size="13" fill="#58a6ff" font-weight="bold">Projects</text>
  <text x="352" y="260" font-family="'Courier New', Courier, monospace" font-size="13" fill="#3d444d">...</text>

  <!-- color palette -->
  <rect x="222" y="278" width="16" height="14" rx="2" fill="#1a1b26"/>
  <rect x="242" y="278" width="16" height="14" rx="2" fill="#f7768e"/>
  <rect x="262" y="278" width="16" height="14" rx="2" fill="#9ece6a"/>
  <rect x="282" y="278" width="16" height="14" rx="2" fill="#e0af68"/>
  <rect x="302" y="278" width="16" height="14" rx="2" fill="#7aa2f7"/>
  <rect x="322" y="278" width="16" height="14" rx="2" fill="#bb9af7"/>
  <rect x="342" y="278" width="16" height="14" rx="2" fill="#7dcfff"/>
  <rect x="362" y="278" width="16" height="14" rx="2" fill="#a9b1d6"/>
</svg>
